PathFileType  4	(X/Y/Z) C:\Users\antoi\Documents\MyRepositories\mobilecap\ResultsAnalysis
DataRate	CameraRate	NumFrames	NumMarkers	Units	OrigDataRate	OrigDataStartFrame	OrigNumFrames
100.0	100.0	4	51	mm	100.0	62	247
Frame#	Time	r_knee			r_shank_antsup			r_ankle			r_calc			r_5meta			r_toe			L_knee			L_shank_antsup			L_ankle			L_calc			L_5meta			L_toe			r_sh2			r_sh3			r_sh4			L_sh2			L_sh3			r_thigh1			r_thigh2			r_thigh3			r_thigh4			r_thigh5			L_thigh1			L_thigh2			L_thigh3			L_thigh4			r.ASIS			r.PSIS			L.ASIS			L.PSIS			C7			R_Shoulder			L_Shoulder			R_Sternum			L_Sternum			R_humerus			R_elbow_med			R_elbow_lat			R_forearm			R_wrist_radius			R_wrist_ulna			L_humerus			L_elbow_med			L_elbow_lat			L_forearm			L_wrist_radius			L_wrist_ulna			R_HJC			L_HJC			R_HJC_reg			L_HJC_reg			
		X1	Y1	Z1	X2	Y2	Z2	X3	Y3	Z3	X4	Y4	Z4	X5	Y5	Z5	X6	Y6	Z6	X7	Y7	Z7	X8	Y8	Z8	X9	Y9	Z9	X10	Y10	Z10	X11	Y11	Z11	X12	Y12	Z12	X13	Y13	Z13	X14	Y14	Z14	X15	Y15	Z15	X16	Y16	Z16	X17	Y17	Z17	X18	Y18	Z18	X19	Y19	Z19	X20	Y20	Z20	X21	Y21	Z21	X22	Y22	Z22	X23	Y23	Z23	X24	Y24	Z24	X25	Y25	Z25	X26	Y26	Z26	X27	Y27	Z27	X28	Y28	Z28	X29	Y29	Z29	X30	Y30	Z30	X31	Y31	Z31	X32	Y32	Z32	X33	Y33	Z33	X34	Y34	Z34	X35	Y35	Z35	X36	Y36	Z36	X37	Y37	Z37	X38	Y38	Z38	X39	Y39	Z39	X40	Y40	Z40	X41	Y41	Z41	X42	Y42	Z42	X43	Y43	Z43	X44	Y44	Z44	X45	Y45	Z45	X46	Y46	Z46	X47	Y47	Z47	X48	Y48	Z48	X49	Y49	Z49	X50	Y50	Z50	X51	Y51	Z51	

62	0.61000000	-938.34798	829.80522	-402.88224	-981.17708	687.35173	-411.82388	-1262.64432	449.74240	-407.03270	-1330.74154	437.50092	-468.53741	-1156.42831	352.55084	-375.30389	-1113.48605	367.82368	-428.07739	-986.79734	816.38844	-739.50225	-1039.81368	622.45856	-713.97778	-1287.32270	434.54848	-727.07126	-1357.17743	401.51847	-664.47758	-1172.41275	343.86162	-773.69945	-1125.24214	368.72288	-715.85038	-1056.29462	600.90018	-419.84748	-1031.04309	723.52153	-369.62501	-1107.14728	640.82842	-365.48644	-1086.54317	669.52032	-775.16860	-1167.67089	582.45455	-760.10965	-1009.88343	1114.83580	-375.39751	-954.38117	1017.88736	-377.14433	-998.92748	965.20058	-373.07087	-1108.18890	1060.81307	-402.97035	-1049.42521	957.19453	-394.73499	-1006.63480	1112.54355	-756.76767	-965.57987	984.39304	-749.70466	-1113.99598	1081.87926	-764.24508	-1068.13965	951.91532	-769.81427	-1025.51974	1329.31644	-447.34282	-1194.11292	1419.87506	-528.93194	-1046.59791	1321.69291	-717.66990	-1198.53127	1421.54971	-622.53832	-929.35952	1838.13125	-607.24372	-858.43558	1791.33977	-452.19281	-882.28971	1795.17386	-771.31442	-824.63682	1709.90845	-584.90008	-826.53207	1706.98451	-635.08939	-838.97336	1550.29648	-349.03933	-908.30298	1405.30874	-342.96141	-883.08374	1450.58189	-273.15350	-684.37479	1429.14382	-356.98130	-607.44516	1421.15686	-401.32417	-601.50153	1397.46339	-371.15165	-821.75932	1537.98261	-863.61163	-894.64870	1419.29373	-869.08383	-844.65956	1452.92464	-932.17479	-662.02394	1453.97905	-830.75347	-608.53517	1458.55397	-781.34114	-598.07483	1439.65751	-808.11000	-1134.30617	1266.43033	-476.79900	-1151.20842	1266.22349	-673.54983	-1123.40944	1268.60108	-482.46370	-1131.84943	1271.79950	-661.26495	
63	0.62000000	-933.66150	827.28875	-404.61278	-977.80976	685.11055	-413.50805	-1261.75505	450.47808	-407.88180	-1329.90008	438.59889	-469.22994	-1156.12518	352.76956	-375.64323	-1113.12494	367.53314	-428.32066	-982.27544	813.69050	-738.26597	-1037.05583	620.23917	-712.99547	-1286.56712	434.98259	-726.86316	-1356.85323	402.12738	-664.22199	-1172.33961	343.77065	-773.68646	-1125.02047	368.35541	-715.86052	-1053.53770	599.31274	-421.59543	-1027.23246	721.74869	-371.18167	-1103.58487	639.08774	-367.11993	-1083.36992	667.70619	-774.10795	-1165.27975	581.41774	-759.20777	-1002.83756	1113.21731	-376.17516	-947.99335	1015.47469	-378.41999	-993.32785	963.23072	-374.31273	-1101.66112	1060.02077	-404.02625	-1043.87315	955.68936	-396.04597	-999.54983	1110.19810	-755.99515	-959.69867	981.54071	-748.45630	-1107.18601	1080.47238	-763.45179	-1062.55157	950.12116	-768.78476	-1018.25908	1328.75773	-447.31246	-1187.46687	1418.59633	-529.35679	-1039.42347	1321.20399	-717.73083	-1191.65442	1420.04050	-622.68192	-926.89772	1839.43996	-606.95889	-854.98426	1794.31437	-452.96105	-878.17438	1797.58462	-769.85871	-820.56212	1712.55378	-584.98931	-822.46833	1709.60352	-634.57095	-826.65804	1554.95481	-349.88496	-890.25167	1407.40533	-342.24659	-865.53767	1453.71337	-272.72346	-668.35630	1443.54928	-362.00981	-592.41322	1440.13142	-408.46775	-584.32535	1416.53217	-378.50720	-807.65883	1544.23598	-861.94580	-874.97252	1422.29421	-868.84930	-825.52464	1458.55965	-931.17946	-645.84071	1470.00621	-825.50548	-593.85063	1477.73917	-774.86692	-581.79446	1459.46584	-801.40347	-1126.81940	1265.38066	-476.95592	-1143.61331	1265.08255	-673.71616	-1116.17523	1267.87309	-482.53190	-1124.20170	1270.64126	-661.42190	
64	0.63000000	-929.80662	825.09743	-406.60437	-975.31682	683.31365	-415.19777	-1261.11876	450.92450	-408.56026	-1329.50214	439.19236	-469.69276	-1155.88836	352.90220	-375.85365	-1112.96231	367.29422	-428.51497	-978.72538	811.38671	-736.98238	-1034.95006	618.47274	-712.23536	-1286.06527	435.18800	-726.62973	-1356.70241	402.48262	-663.99126	-1172.38969	343.58095	-773.72078	-1124.95361	367.99706	-715.92818	-1051.55025	597.84576	-423.01508	-1024.31308	720.38284	-372.84233	-1101.37073	638.30148	-368.43844	-1081.05085	666.12189	-773.17300	-1163.59467	580.50400	-758.33358	-995.80948	1112.00533	-377.05726	-941.81563	1013.32686	-379.84051	-988.08254	961.81517	-375.58476	-1095.02069	1060.15514	-405.24363	-1038.67723	954.91575	-397.42026	-992.46013	1108.42667	-755.30820	-954.31410	979.04796	-747.36107	-1100.46985	1080.07572	-762.43873	-1057.50727	949.14151	-767.72732	-1009.80613	1329.07764	-447.13660	-1180.08011	1418.31390	-529.56438	-1031.31053	1321.71671	-717.88199	-1184.02197	1419.60486	-622.89075	-924.16230	1842.11169	-606.71170	-851.16268	1798.72057	-454.01212	-873.91447	1801.49941	-768.50309	-816.26566	1716.54563	-584.95705	-818.18157	1713.65198	-634.01614	-814.68781	1561.40533	-350.55844	-872.92425	1412.08783	-341.33926	-848.73242	1459.17385	-271.95602	-653.63519	1459.36783	-366.30685	-578.83980	1460.23054	-414.48213	-568.81955	1436.82522	-384.89446	-794.18704	1552.09130	-860.55151	-856.19026	1427.43301	-868.82393	-807.26734	1466.25807	-930.31659	-631.05001	1487.55653	-821.21967	-580.68527	1497.71519	-768.66631	-567.24717	1480.43047	-795.26345	-1118.33632	1265.27424	-477.09533	-1135.11198	1264.95598	-673.86025	-1107.95100	1267.89510	-482.55746	-1115.51799	1270.37226	-661.69925	
65	0.64000000	-926.84092	823.35175	-408.66273	-973.65196	682.06621	-416.83517	-1260.81055	451.21661	-408.81064	-1329.39339	439.46511	-469.74009	-1155.76631	352.83110	-375.95238	-1112.94753	367.15100	-428.65817	-976.21617	809.84170	-735.83117	-1033.48456	617.31891	-711.64589	-1285.87619	435.39412	-726.44471	-1356.50312	402.79261	-663.89120	-1172.52776	343.33293	-773.79789	-1125.02209	367.72099	-716.06064	-1050.37581	596.78779	-424.06819	-1022.34854	719.42421	-374.50766	-1100.02457	637.97598	-369.54026	-1079.60530	665.19515	-772.32429	-1162.60948	580.07238	-757.47462	-988.33194	1111.13450	-378.00705	-936.13304	1011.57831	-381.20834	-983.16441	960.98262	-377.08009	-1088.35087	1061.13863	-406.75667	-1033.88819	954.83913	-398.88909	-985.21889	1107.32651	-754.55957	-949.32004	977.22070	-746.38535	-1093.74660	1080.80371	-761.34813	-1053.04859	949.06271	-766.64749	-999.79526	1330.56387	-446.85709	-1171.70977	1419.16098	-529.40721	-1021.51430	1322.55177	-716.99355	-1175.61911	1420.36626	-622.99227	-921.12935	1846.22438	-606.47632	-847.02417	1804.75856	-455.22525	-869.50842	1807.12157	-767.48838	-811.75980	1722.07635	-584.96783	-813.63633	1719.22036	-633.45413	-803.21545	1569.62895	-351.08380	-856.37969	1418.79819	-340.18829	-832.86420	1466.96735	-271.14290	-640.31845	1476.35040	-369.83683	-566.68238	1480.96565	-419.48162	-555.00178	1458.09101	-390.29125	-781.35487	1561.66231	-859.27189	-838.54153	1434.70365	-868.97885	-790.26226	1475.90274	-929.77900	-617.78316	1506.22435	-817.60714	-569.18879	1518.41369	-763.04676	-554.46232	1502.15999	-789.63230	-1108.61969	1266.43263	-476.51291	-1125.33438	1265.50154	-673.27823	-1097.88269	1268.81114	-482.16216	-1105.35003	1271.11410	-660.93518	
